<svg viewBox="0 0 24 24" stroke-linecap="round" stroke-linejoin="round" fill="none" xmlns="http://www.w3.org/2000/svg" xmlns:xlink="http://www.w3.org/1999/xlink">
    <defs stroke-linecap="butt" stroke-linejoin="miter" fill="currentColor">
        <linearGradient id="gradient2">
            <stop offset="0%" stop-color="currentColor" stop-opacity="0" />
            <stop offset="50%" stop-color="currentColor" stop-opacity="0.4" />
            <stop offset="100%" stop-color="currentColor" stop-opacity="0" />
        </linearGradient>
        <linearGradient id="gradient1" gradientTransform="matrix(0.5, 0, 0, 1, 0.25, 0.1)">
            <stop offset="0%" stop-color="currentColor" stop-opacity="0" />
            <stop offset="49%" stop-color="currentColor" stop-opacity="0.6" />
            <stop offset="100%" stop-color="currentColor" stop-opacity="0" />
        </linearGradient>
    </defs>
    <g>
        <animateTransform attributeName="transform" calcMode="discrete" dur="1s" repeatCount="indefinite" type="rotate" values="0 12 12;30 12 12; 60 12 12; 90 12 12; 120 12 12; 150 12 12; 180 12 12; 210 12 12; 240 12 12; 270 12 12; 300 12 12; 330 12 12;" />
        <g stroke="url(#gradient1)">
            <line stroke-width="2" stroke="currentColor" x1="12" x2="12.00005" y1="1" y2="4" />
            <path stroke-width="5" stroke="url(#gradient2)" stroke-linecap="butt" stroke-linejoin="miter" d="M2.5001 12c0-5.2467 4.2532-9.5 9.4999-9.5s9.5 4.2533 9.5 9.5" />
        </g>
        <g stroke-width="2" stroke="currentColor">
            <path opacity="0.6" d="M17.5 2.4737 16 5.0718" />
            <path opacity="0.6" d="M6.5 2.4737 8 5.0718" />
            <path opacity="0.4" d="M12 1v3" />
            <path opacity="0.4" d="M1 12h3M12 23v-3M23 12h-3M2.4738 6.5 5.0718 8M2.4738 17.5 5.0718 16M6.5 21.5263 8 18.9282M17.5 21.5263 16 18.9282M21.5263 17.5 18.9282 16M21.5263 6.5 18.9282 8" />
        </g>
    </g>
</svg>