<?xml version="1.0" encoding="UTF-8" ?>
<!DOCTYPE svg PUBLIC "-//W3C//DTD SVG 1.1//EN" "http://www.w3.org/Graphics/SVG/1.1/DTD/svg11.dtd">
<svg width="360pt" height="360pt" viewBox="0 0 360 360" version="1.1" xmlns="http://www.w3.org/2000/svg">
<g id="#002768ff">
<path fill="#002768" opacity="1.00" d=" M 0.00 0.00 L 182.85 0.00 C 182.84 26.51 182.85 53.03 182.84 79.54 C 175.99 73.02 168.11 67.60 159.71 63.27 C 156.60 61.58 153.05 61.17 149.60 60.75 C 151.51 63.57 153.39 66.52 153.40 70.05 C 149.45 68.91 145.69 67.09 142.52 64.45 C 128.31 53.05 114.73 40.91 100.75 29.24 C 95.23 24.59 88.07 22.43 80.99 21.73 C 72.64 20.85 64.23 21.51 55.86 21.70 C 42.17 22.78 28.75 25.93 15.51 29.46 C 13.14 30.00 11.19 31.49 9.31 32.96 C 16.21 36.69 24.17 37.48 31.42 40.31 C 40.47 43.66 49.58 48.97 54.31 57.72 C 56.30 61.17 56.69 65.17 57.03 69.05 C 57.30 72.42 59.01 75.44 60.83 78.20 C 66.02 85.81 72.73 92.27 80.06 97.79 C 80.08 102.14 79.93 106.58 81.20 110.79 C 84.25 121.48 89.06 131.60 94.89 141.05 C 104.52 156.57 116.40 170.79 130.53 182.42 C 142.89 192.62 157.32 200.61 173.05 204.11 C 175.65 204.44 176.79 206.98 178.25 208.80 C 170.19 212.40 160.53 214.59 152.14 210.80 C 144.65 206.79 140.21 198.50 131.80 195.90 C 131.02 197.92 130.28 199.95 129.55 201.99 C 122.59 200.78 115.17 201.36 108.92 204.87 C 104.69 206.99 101.49 210.58 98.73 214.34 C 107.24 216.74 115.05 220.93 122.78 225.12 C 125.98 226.94 129.61 228.11 132.42 230.56 C 135.54 233.96 136.74 238.69 140.08 241.95 C 146.94 249.02 155.96 253.68 162.19 261.43 C 159.43 261.47 156.67 261.49 153.92 261.57 C 161.99 269.36 173.05 272.24 182.84 277.11 C 182.86 286.16 182.83 295.22 182.86 304.27 C 182.31 304.42 181.21 304.70 180.66 304.84 C 181.42 305.67 182.16 306.53 182.95 307.34 C 182.71 324.89 182.91 342.45 182.84 360.00 L 0.00 360.00 L 0.00 0.00 M 40.56 219.27 C 38.24 226.38 35.97 233.51 33.72 240.64 C 26.11 240.60 18.51 240.59 10.90 240.55 C 17.10 244.94 23.29 249.36 29.46 253.80 C 26.99 260.97 24.67 268.19 22.25 275.39 C 28.44 271.00 34.32 265.93 40.83 262.12 C 47.02 266.29 52.92 270.90 58.97 275.28 C 56.56 268.12 54.26 260.92 51.76 253.78 C 57.94 249.34 64.10 244.86 70.36 240.52 C 62.75 240.58 55.13 240.59 47.52 240.67 C 45.18 233.54 43.04 226.35 40.56 219.27 M 99.99 275.41 C 97.66 282.56 95.41 289.74 93.09 296.90 C 85.48 296.80 77.86 296.88 70.25 296.77 C 76.45 301.18 82.62 305.65 88.84 310.03 C 86.40 317.23 84.10 324.48 81.61 331.66 C 87.71 327.10 93.91 322.66 100.03 318.11 C 106.15 322.62 112.31 327.08 118.44 331.58 C 115.91 324.42 113.63 317.18 111.17 310.01 C 117.36 305.62 123.52 301.20 129.67 296.77 C 122.08 296.85 114.49 296.82 106.90 296.90 C 104.58 289.74 102.35 282.56 99.99 275.41 Z" />
</g>
<g id="#e0172aff">
<path fill="#e0172a" opacity="1.00" d=" M 182.85 0.00 L 360.00 0.00 L 360.00 360.00 L 182.84 360.00 C 182.91 342.45 182.71 324.89 182.95 307.34 C 189.13 311.67 197.12 312.46 204.36 310.80 C 207.38 315.79 211.68 319.84 216.83 322.60 C 216.56 320.63 215.07 318.47 216.43 316.61 C 218.13 313.40 220.69 310.71 223.57 308.52 C 224.50 307.84 225.54 306.95 226.79 307.42 C 231.47 308.45 235.96 310.21 240.45 311.89 C 238.17 315.94 233.33 319.74 235.21 324.93 C 236.20 328.95 240.18 330.85 243.74 332.12 C 243.48 329.74 243.06 327.35 243.26 324.95 C 243.61 322.19 245.66 320.11 247.20 317.95 C 248.08 320.99 248.80 324.06 249.55 327.14 C 251.71 323.81 253.52 320.28 255.31 316.75 C 258.70 321.13 257.32 326.60 256.37 331.54 C 259.81 328.02 263.95 324.26 264.17 318.97 C 264.67 315.20 262.23 311.73 259.05 309.97 C 251.48 305.57 242.58 304.68 234.35 302.05 C 237.97 298.87 241.83 294.88 247.04 295.05 C 248.98 294.79 249.91 296.74 250.94 298.01 C 253.18 301.41 255.42 304.85 258.38 307.71 C 258.39 304.86 258.37 302.03 258.40 299.19 C 264.71 303.29 268.53 310.40 275.60 313.44 C 275.11 316.08 273.68 319.02 275.28 321.56 C 276.82 324.88 280.36 326.34 283.47 327.78 C 282.83 323.91 282.48 319.99 282.69 316.06 C 284.81 317.81 286.73 319.78 288.58 321.82 C 289.47 318.85 290.36 315.88 291.51 313.00 C 293.55 316.29 293.79 320.15 293.67 323.92 C 296.47 321.50 299.98 319.01 300.37 315.00 C 300.91 310.63 297.85 306.67 294.04 304.91 C 288.93 302.12 282.88 303.37 277.50 304.57 C 275.92 301.30 274.13 298.13 272.13 295.09 C 275.37 294.48 278.62 293.83 281.83 293.05 C 278.73 287.37 273.23 283.67 269.57 278.45 C 265.53 272.19 265.58 263.14 270.55 257.40 C 273.58 254.07 279.06 255.05 282.02 257.99 C 287.52 263.02 290.22 270.63 296.83 274.58 C 296.66 271.07 296.41 267.39 299.06 264.64 C 301.63 266.33 305.11 268.20 304.89 271.81 C 304.11 273.53 302.90 275.01 301.84 276.56 C 306.38 274.93 313.47 273.29 312.93 267.05 C 312.52 259.54 315.90 252.50 315.44 245.00 C 315.64 236.14 310.12 228.71 305.17 221.88 C 299.65 214.12 291.13 209.19 285.55 201.49 C 284.16 199.54 282.72 197.43 282.53 194.97 C 282.81 192.25 284.18 189.81 285.33 187.38 C 290.48 177.28 297.21 168.07 304.25 159.21 C 319.62 141.91 332.82 122.85 345.52 103.55 C 347.73 100.18 350.09 96.23 348.98 92.03 C 347.48 84.18 341.57 78.32 336.00 73.03 C 328.06 65.39 317.63 61.13 307.29 57.84 C 304.32 56.86 301.18 56.59 298.07 56.50 C 299.79 60.76 302.41 64.55 304.44 68.65 C 292.14 68.82 279.87 65.84 267.58 67.75 C 261.59 68.20 255.83 70.12 250.71 73.22 C 258.36 78.03 267.51 81.61 272.44 89.64 C 274.12 92.37 274.87 96.02 272.85 98.79 C 269.64 103.81 263.06 105.97 261.13 111.94 C 260.44 114.60 257.64 115.37 255.47 116.45 C 248.41 119.53 241.58 123.59 236.51 129.48 C 231.10 135.87 227.96 143.76 224.84 151.44 C 221.49 146.81 219.05 141.64 216.41 136.60 C 208.35 121.00 201.17 104.90 191.83 90.00 C 189.39 86.07 186.15 82.74 182.84 79.54 C 182.85 53.03 182.84 26.51 182.85 0.00 Z" />
<path fill="#e0172a" opacity="1.00" d=" M 182.84 277.11 C 187.26 279.47 191.68 282.32 194.49 286.59 C 196.46 289.67 197.52 293.70 196.23 297.24 C 193.40 301.81 187.68 302.98 182.86 304.27 C 182.83 295.22 182.86 286.16 182.84 277.11 Z" />
</g>
<g id="#ffffffff">
<path fill="#ffffff" opacity="1.00" d=" M 15.51 29.46 C 28.75 25.93 42.17 22.78 55.86 21.70 C 64.23 21.51 72.64 20.85 80.99 21.73 C 88.07 22.43 95.23 24.59 100.75 29.24 C 114.73 40.91 128.31 53.05 142.52 64.45 C 145.69 67.09 149.45 68.91 153.40 70.05 C 153.39 66.52 151.51 63.57 149.60 60.75 C 153.05 61.17 156.60 61.58 159.71 63.27 C 168.11 67.60 175.99 73.02 182.84 79.54 C 186.15 82.74 189.39 86.07 191.83 90.00 C 201.17 104.90 208.35 121.00 216.41 136.60 C 219.05 141.64 221.49 146.81 224.84 151.44 C 227.96 143.76 231.10 135.87 236.51 129.48 C 241.58 123.59 248.41 119.53 255.47 116.45 C 257.64 115.37 260.44 114.60 261.13 111.94 C 263.06 105.97 269.64 103.81 272.85 98.79 C 274.87 96.02 274.12 92.37 272.44 89.64 C 267.51 81.61 258.36 78.03 250.71 73.22 C 255.83 70.12 261.59 68.20 267.58 67.75 C 279.87 65.84 292.14 68.82 304.44 68.65 C 302.41 64.55 299.79 60.76 298.07 56.50 C 301.18 56.59 304.32 56.86 307.29 57.84 C 317.63 61.13 328.06 65.39 336.00 73.03 C 341.57 78.32 347.48 84.18 348.98 92.03 C 350.09 96.23 347.73 100.18 345.52 103.55 C 332.82 122.85 319.62 141.91 304.25 159.21 C 297.21 168.07 290.48 177.28 285.33 187.38 C 284.18 189.81 282.81 192.25 282.53 194.97 C 282.72 197.43 284.16 199.54 285.55 201.49 C 291.13 209.19 299.65 214.12 305.17 221.88 C 310.12 228.71 315.64 236.14 315.44 245.00 C 315.90 252.50 312.52 259.54 312.93 267.05 C 313.47 273.29 306.38 274.93 301.84 276.56 C 302.90 275.01 304.11 273.53 304.89 271.81 C 305.11 268.20 301.63 266.33 299.06 264.64 C 296.41 267.39 296.66 271.07 296.83 274.58 C 290.22 270.63 287.52 263.02 282.02 257.99 C 279.06 255.05 273.58 254.07 270.55 257.40 C 265.58 263.14 265.53 272.19 269.57 278.45 C 273.23 283.67 278.73 287.37 281.83 293.05 C 278.62 293.83 275.37 294.48 272.13 295.09 C 274.13 298.13 275.92 301.30 277.50 304.57 C 282.88 303.37 288.93 302.12 294.04 304.91 C 297.85 306.67 300.91 310.63 300.37 315.00 C 299.98 319.01 296.47 321.50 293.67 323.92 C 293.79 320.15 293.55 316.29 291.51 313.00 C 290.36 315.88 289.47 318.85 288.58 321.82 C 286.73 319.78 284.81 317.81 282.69 316.06 C 282.48 319.99 282.83 323.91 283.47 327.78 C 280.36 326.34 276.82 324.88 275.28 321.56 C 273.68 319.02 275.11 316.08 275.60 313.44 C 268.53 310.40 264.71 303.29 258.40 299.19 C 258.37 302.03 258.39 304.86 258.38 307.71 C 255.42 304.85 253.18 301.41 250.94 298.01 C 249.91 296.74 248.98 294.79 247.04 295.05 C 241.83 294.88 237.97 298.87 234.35 302.05 C 242.58 304.68 251.48 305.57 259.05 309.97 C 262.23 311.73 264.67 315.20 264.17 318.97 C 263.95 324.26 259.81 328.02 256.37 331.54 C 257.32 326.60 258.70 321.13 255.31 316.75 C 253.52 320.28 251.71 323.81 249.55 327.14 C 248.80 324.06 248.08 320.99 247.20 317.95 C 245.66 320.11 243.61 322.19 243.26 324.95 C 243.06 327.35 243.48 329.74 243.74 332.12 C 240.18 330.85 236.20 328.95 235.21 324.93 C 233.33 319.74 238.17 315.94 240.45 311.89 C 235.96 310.21 231.47 308.45 226.79 307.42 C 225.54 306.95 224.50 307.84 223.57 308.52 C 220.69 310.71 218.13 313.40 216.43 316.61 C 215.07 318.47 216.56 320.63 216.83 322.60 C 211.68 319.84 207.38 315.79 204.36 310.80 C 197.12 312.46 189.13 311.67 182.95 307.34 C 182.16 306.53 181.42 305.67 180.66 304.84 C 181.21 304.70 182.31 304.42 182.86 304.27 C 187.68 302.98 193.40 301.81 196.23 297.24 C 197.52 293.70 196.46 289.67 194.49 286.59 C 191.68 282.32 187.26 279.47 182.84 277.11 C 173.05 272.24 161.99 269.36 153.92 261.57 C 156.67 261.49 159.43 261.47 162.19 261.43 C 155.96 253.68 146.94 249.02 140.08 241.95 C 136.74 238.69 135.54 233.96 132.42 230.56 C 129.61 228.11 125.98 226.94 122.78 225.12 C 115.05 220.93 107.24 216.74 98.73 214.34 C 101.49 210.58 104.69 206.99 108.92 204.87 C 115.17 201.36 122.59 200.78 129.55 201.99 C 130.28 199.95 131.02 197.92 131.80 195.90 C 140.21 198.50 144.65 206.79 152.14 210.80 C 160.53 214.59 170.19 212.40 178.25 208.80 C 176.79 206.98 175.65 204.44 173.05 204.11 C 157.32 200.61 142.89 192.62 130.53 182.42 C 116.40 170.79 104.52 156.57 94.89 141.05 C 89.06 131.60 84.25 121.48 81.20 110.79 C 79.93 106.58 80.08 102.14 80.06 97.79 C 72.73 92.27 66.02 85.81 60.83 78.20 C 59.01 75.44 57.30 72.42 57.03 69.05 C 56.69 65.17 56.30 61.17 54.31 57.72 C 49.58 48.97 40.47 43.66 31.42 40.31 C 24.17 37.48 16.21 36.69 9.31 32.96 C 11.19 31.49 13.14 30.00 15.51 29.46 Z" />
<path fill="#ffffff" opacity="1.00" d=" M 40.56 219.27 C 43.04 226.35 45.18 233.54 47.52 240.67 C 55.13 240.59 62.75 240.58 70.36 240.52 C 64.10 244.86 57.94 249.34 51.76 253.78 C 54.26 260.92 56.56 268.12 58.97 275.28 C 52.92 270.90 47.02 266.29 40.83 262.12 C 34.32 265.93 28.44 271.00 22.25 275.39 C 24.67 268.19 26.99 260.97 29.46 253.80 C 23.29 249.36 17.10 244.94 10.90 240.55 C 18.51 240.59 26.11 240.60 33.72 240.64 C 35.97 233.51 38.24 226.38 40.56 219.27 Z" />
<path fill="#ffffff" opacity="1.00" d=" M 99.99 275.41 C 102.35 282.56 104.58 289.74 106.90 296.90 C 114.49 296.82 122.08 296.85 129.67 296.77 C 123.52 301.20 117.36 305.62 111.17 310.01 C 113.63 317.18 115.91 324.42 118.44 331.58 C 112.31 327.08 106.15 322.62 100.03 318.11 C 93.91 322.66 87.71 327.10 81.61 331.66 C 84.10 324.48 86.40 317.23 88.84 310.03 C 82.62 305.65 76.45 301.18 70.25 296.77 C 77.86 296.88 85.48 296.80 93.09 296.90 C 95.41 289.74 97.66 282.56 99.99 275.41 Z" />
</g>
</svg>
